<svg xmlns="http://www.w3.org/2000/svg" width="29.139" height="28.465" viewBox="0 0 29.139 28.465">
  <g id="Group_139" data-name="Group 139" transform="translate(280.304 -4778.394)">
    <path id="path254" d="M724.912-440l-2.247,4.421v4.421l1.8-.884,2.247.884,2.247-.884,1.8.884v-4.421L728.508-440" transform="translate(-992.445 5218.998)" fill="none" stroke="#393a3c" stroke-linecap="round" stroke-linejoin="round" stroke-miterlimit="10" stroke-width="0.9"/>
    <path id="path256" d="M693.332-435.578,698.276-440h17.98l4.944,4.421" transform="translate(-973 5218.998)" fill="none" stroke="#393a3c" stroke-linecap="round" stroke-linejoin="round" stroke-miterlimit="10" stroke-width="0.9"/>
    <path id="path258" d="M710.412-403.677H693.781a.445.445,0,0,1-.45-.442v-22.1a.446.446,0,0,1,.45-.442H720.75a.446.446,0,0,1,.449.442v8.842" transform="translate(-973 5210.085)" fill="none" stroke="#393a3c" stroke-linecap="square" stroke-linejoin="round" stroke-miterlimit="10" stroke-width="0.9"/>
    <path id="path260" d="M730.741-386.743h4.72a6.037,6.037,0,0,0,6.068-5.968h0a6.037,6.037,0,0,0-6.068-5.968H731.64v-2.653L724-396.469l7.641,4.863v-2.21h2.7a4.024,4.024,0,0,1,4.045,3.979" transform="translate(-993.328 5193.152)" fill="none" stroke="#393a3c" stroke-linecap="round" stroke-linejoin="round" stroke-miterlimit="10" stroke-width="0.9"/>
  </g>
</svg>
