<svg xmlns="http://www.w3.org/2000/svg" width="25.601" height="27.308" viewBox="0 0 25.601 27.308">
  <g id="Group_140" data-name="Group 140" transform="translate(877.45 -4911.882)">
    <path id="path246" d="M108.35-306.666s-4.574,2.982-12.351,2.982v10.02a11.821,11.821,0,0,0,6.588,10.426l5.763,2.981,5.763-2.981a11.821,11.821,0,0,0,6.588-10.426v-10.02C112.925-303.684,108.35-306.666,108.35-306.666Z" transform="translate(-973 5218.998)" fill="none" stroke="#393a3c" stroke-linecap="round" stroke-linejoin="round" stroke-miterlimit="10" stroke-width="0.9"/>
    <path id="path248" d="M125.723-279.127v-7.26c0-.154-.2-.279-.457-.279H112.457c-.253,0-.457.125-.457.279v7.26c0,.154.2.279.457.279h12.808C125.518-278.847,125.723-278.973,125.723-279.127Z" transform="translate(-983.511 5206.984)" fill="none" stroke="#393a3c" stroke-linecap="square" stroke-linejoin="round" stroke-miterlimit="10" stroke-width="0.9"/>
    <g id="Rectangle_87" data-name="Rectangle 87" transform="translate(-869 4923.742)" fill="none" stroke="#393a3c" stroke-width="0.5">
      <rect width="2" height="2" stroke="none"/>
      <rect x="0.25" y="0.25" width="1.5" height="1.5" fill="none"/>
    </g>
  </g>
</svg>
