<svg xmlns="http://www.w3.org/2000/svg" width="31.767" height="23.85" viewBox="0 0 31.767 23.85">
  <g id="Group_138" data-name="Group 138" transform="translate(430.785 -5055.882)">
    <path id="path106" d="M608.639-111.8a2.93,2.93,0,0,1-2.987,2.869,2.93,2.93,0,0,1-2.987-2.869,2.93,2.93,0,0,1,2.987-2.869A2.93,2.93,0,0,1,608.639-111.8Z" transform="translate(-1010.596 5188.211)" fill="none" stroke="#393a3c" stroke-linecap="round" stroke-linejoin="round" stroke-miterlimit="10" stroke-width="0.9"/>
    <path id="path108" d="M556.64-111.8a2.93,2.93,0,0,1-2.987,2.869,2.93,2.93,0,0,1-2.987-2.869,2.93,2.93,0,0,1,2.987-2.869A2.93,2.93,0,0,1,556.64-111.8Z" transform="translate(-978.013 5188.211)" fill="none" stroke="#393a3c" stroke-linecap="round" stroke-linejoin="round" stroke-miterlimit="10" stroke-width="0.9"/>
    <path id="path110" d="M604-136v.956a1.465,1.465,0,0,0,1.494,1.434h1" transform="translate(-1011.432 5201.894)" fill="none" stroke="#393a3c" stroke-linecap="round" stroke-linejoin="round" stroke-miterlimit="10" stroke-width="0.9"/>
    <path id="path112" d="M594.665-106.666h2.987" transform="translate(-1005.584 5183.08)" fill="none" stroke="#393a3c" stroke-linecap="square" stroke-linejoin="round" stroke-miterlimit="10" stroke-width="0.9"/>
    <path id="path114" d="M603.627-133.178h1a1.465,1.465,0,0,0,1.494-1.434v-4.659a2.8,2.8,0,0,0-.739-1.889l-5.636-6.186a2.026,2.026,0,0,0-1.5-.653h-3.577" transform="translate(-1005.584 5209.591)" fill="none" stroke="#393a3c" stroke-linecap="square" stroke-linejoin="round" stroke-miterlimit="10" stroke-width="0.9"/>
    <path id="path116" d="M545.332-106.666h1.991" transform="translate(-974.671 5183.08)" fill="none" stroke="#393a3c" stroke-linecap="square" stroke-linejoin="round" stroke-miterlimit="10" stroke-width="0.9"/>
    <path id="path118" d="M549.332-162.666h16.927v20.082h-7.468" transform="translate(-977.177 5218.998)" fill="none" stroke="#393a3c" stroke-linecap="square" stroke-linejoin="round" stroke-miterlimit="10" stroke-width="0.9"/>
    <path id="path120" d="M554.328-145.232H559.8v-1.434l6.472,3.825-6.472,3.825v-1.434h-6.472" transform="translate(-979.684 5208.736)" fill="none" stroke="#393a3c" stroke-linecap="square" stroke-linejoin="round" stroke-miterlimit="10" stroke-width="0.9"/>
    <path id="path122" d="M544.657-142.666h-1.991" transform="translate(-973 5206.17)" fill="none" stroke="#393a3c" stroke-linecap="square" stroke-linejoin="round" stroke-miterlimit="10" stroke-width="0.9"/>
  </g>
</svg>
